<svg xmlns="http://www.w3.org/2000/svg" viewBox="0 0 100 100" fill="none">
    <rect x="14" y="8" width="58" height="76" rx="6" stroke="#000" stroke-width="6"/>
    <rect x="14" y="8" width="58" height="18" rx="6" fill="#000"/>
    <rect x="14" y="18" width="58" height="8" fill="#000"/>
    <line x1="26" y1="40" x2="60" y2="40" stroke="#000" stroke-width="5" stroke-linecap="round"/>
    <path d="M26 54 Q34 49 42 54 Q50 59 58 54 Q64 49 70 54" stroke="#000" stroke-width="4.5" stroke-linecap="round"/>
    <path d="M26 66 Q33 61 40 66 Q47 71 54 66" stroke="#000" stroke-width="4.5" stroke-linecap="round"/>
    <g transform="translate(54 52) rotate(-38)">
        <rect x="0" y="0" width="10" height="34" rx="2" fill="#000"/>
        <polygon points="0,34 10,34 5,44" fill="#000"/>
        <rect x="2" y="3" width="6" height="6" rx="1" fill="white"/>
    </g>
</svg>